<svg xmlns="http://www.w3.org/2000/svg" xmlns:xlink="http://www.w3.org/1999/xlink" width="500" zoomAndPan="magnify" viewBox="0 0 375 374.999991" height="500" preserveAspectRatio="xMidYMid meet" version="1.0"><defs><g/><clipPath id="d5e9a5ef2e"><path d="M 0.199219 30 L 354.441406 30 L 354.441406 198.71875 L 0.199219 198.71875 Z M 0.199219 30 " clip-rule="nonzero"/></clipPath><clipPath id="2b365ade8e"><rect x="0" width="355" y="0" height="169"/></clipPath><clipPath id="118be22bc4"><rect x="0" width="36" y="0" height="108"/></clipPath><clipPath id="912db7eb00"><rect x="0" width="355" y="0" height="199"/></clipPath></defs><g transform="matrix(1, 0, 0, 1, 7, 90)"><g clip-path="url(#912db7eb00)"><g clip-path="url(#d5e9a5ef2e)"><g transform="matrix(1, 0, 0, 1, 0, 30)"><g clip-path="url(#2b365ade8e)"><g fill="#ffffff" fill-opacity="1"><g transform="translate(0.814185, 113.544747)"><g><path d="M 66.9375 -53.234375 L 61.9375 -51.296875 L 57.578125 -56.78125 L 51.453125 -60.328125 L 47.265625 -59.515625 L 44.359375 -59.6875 L 40.8125 -58.0625 L 36.609375 -56.453125 C 36.609375 -56.453125 36.097656 -55.804688 35.078125 -54.515625 C 34.054688 -53.222656 32.875 -51.421875 31.53125 -49.109375 C 30.1875 -46.796875 29.003906 -44.160156 27.984375 -41.203125 C 26.960938 -38.253906 26.453125 -35.113281 26.453125 -31.78125 C 26.453125 -28.65625 27.257812 -26.046875 28.875 -23.953125 C 30.488281 -21.859375 32.070312 -20.328125 33.625 -19.359375 C 35.1875 -18.390625 35.96875 -17.90625 35.96875 -17.90625 L 59.203125 -19.03125 C 59.203125 -19.03125 59.226562 -19.03125 59.28125 -19.03125 C 59.332031 -19.03125 59.359375 -19.03125 59.359375 -19.03125 C 60.648438 -19.03125 61.910156 -18.4375 63.140625 -17.25 C 64.378906 -16.070312 65 -14.835938 65 -13.546875 C 65 -12.472656 64.269531 -11.53125 62.8125 -10.71875 C 61.363281 -9.914062 59.566406 -9.082031 57.421875 -8.21875 C 56.234375 -7.6875 55.019531 -7.148438 53.78125 -6.609375 C 52.550781 -6.078125 51.398438 -5.8125 50.328125 -5.8125 C 49.785156 -5.8125 48.816406 -5.941406 47.421875 -6.203125 C 46.023438 -6.472656 44.734375 -6.742188 43.546875 -7.015625 C 42.367188 -7.285156 41.78125 -7.421875 41.78125 -7.421875 L 35.8125 -7.578125 C 33.125 -7.691406 31.109375 -8.363281 29.765625 -9.59375 C 28.421875 -10.832031 26.617188 -12.421875 24.359375 -14.359375 L 18.703125 -19.1875 L 18.390625 -23.0625 L 16.609375 -30.328125 L 17.265625 -34.1875 L 17.421875 -38.234375 L 22.265625 -54.203125 C 22.472656 -55.054688 23.164062 -56.128906 24.34375 -57.421875 C 25.53125 -58.710938 26.820312 -59.972656 28.21875 -61.203125 C 29.625 -62.441406 30.835938 -63.460938 31.859375 -64.265625 C 32.878906 -65.078125 33.390625 -65.484375 33.390625 -65.484375 L 37.75 -68.546875 L 40.96875 -68.546875 C 40.96875 -68.546875 41.554688 -68.679688 42.734375 -68.953125 C 43.921875 -69.222656 45 -69.359375 45.96875 -69.359375 C 49.40625 -69.359375 52.707031 -68.816406 55.875 -67.734375 C 59.050781 -66.660156 61.6875 -65.316406 63.78125 -63.703125 C 65.882812 -62.097656 66.9375 -60.539062 66.9375 -59.03125 Z M 66.9375 -53.234375 "/></g></g></g><g fill="#ffffff" fill-opacity="1"><g transform="translate(56.936298, 113.544747)"><g><path d="M 77.90625 -7.75 C 77.90625 -7.632812 77.90625 -7.578125 77.90625 -7.578125 C 77.90625 -7.578125 77.90625 -7.523438 77.90625 -7.421875 C 77.90625 -4.734375 77.148438 -2.097656 75.640625 0.484375 C 74.140625 3.066406 72.257812 4.359375 70 4.359375 C 69.144531 4.359375 68.3125 3.925781 67.5 3.0625 C 66.695312 2.207031 66.296875 1.296875 66.296875 0.328125 C 66.296875 -1.398438 66.425781 -3.472656 66.6875 -5.890625 C 66.957031 -8.304688 67.226562 -10.671875 67.5 -12.984375 C 67.769531 -15.296875 68.039062 -17.203125 68.3125 -18.703125 C 68.582031 -20.210938 68.71875 -20.96875 68.71875 -20.96875 L 67.75 -25.96875 L 67.421875 -32.265625 L 66.78125 -36.125 C 66.132812 -39.25 64.304688 -41.992188 61.296875 -44.359375 C 58.285156 -46.722656 55.054688 -47.90625 51.609375 -47.90625 C 51.179688 -47.90625 50.695312 -47.929688 50.15625 -47.984375 C 49.625 -48.035156 49.035156 -48.0625 48.390625 -48.0625 C 47.097656 -48.0625 45.671875 -47.898438 44.109375 -47.578125 C 42.554688 -47.253906 41.1875 -46.554688 40 -45.484375 C 37.632812 -43.335938 35.695312 -41.238281 34.1875 -39.1875 C 32.6875 -37.144531 31.9375 -36.125 31.9375 -36.125 L 31.9375 -30.96875 L 29.671875 -21.125 L 28.390625 -0.96875 C 28.285156 0.101562 27.878906 1.066406 27.171875 1.921875 C 26.472656 2.785156 25.535156 3.21875 24.359375 3.21875 C 22.640625 3.21875 21.457031 2.707031 20.8125 1.6875 C 20.164062 0.664062 19.84375 -1.128906 19.84375 -3.703125 L 19.84375 -10 L 20.640625 -13.21875 L 20.484375 -22.265625 L 21.296875 -30 L 20.640625 -33.546875 L 21.9375 -61.296875 C 22.15625 -63.765625 22.316406 -66.207031 22.421875 -68.625 C 22.523438 -71.050781 22.578125 -73.550781 22.578125 -76.125 C 22.578125 -78.601562 22.414062 -81.238281 22.09375 -84.03125 C 21.769531 -86.832031 21.609375 -89.898438 21.609375 -93.234375 C 21.609375 -93.554688 21.609375 -93.90625 21.609375 -94.28125 C 21.609375 -94.65625 21.609375 -95.003906 21.609375 -95.328125 C 21.609375 -97.472656 21.71875 -99.617188 21.9375 -101.765625 C 22.15625 -103.921875 22.640625 -105.722656 23.390625 -107.171875 C 24.140625 -108.628906 25.375 -109.359375 27.09375 -109.359375 C 28.28125 -109.359375 29.359375 -108.601562 30.328125 -107.09375 C 31.296875 -105.59375 31.832031 -104.25 31.9375 -103.0625 L 32.265625 -99.6875 L 31.453125 -96.453125 L 32.265625 -91.78125 L 32.09375 -87.75 C 32.09375 -87.75 32.007812 -86.78125 31.84375 -84.84375 C 31.6875 -82.90625 31.5 -80.507812 31.28125 -77.65625 C 31.070312 -74.8125 30.96875 -72.046875 30.96875 -69.359375 C 30.96875 -67.316406 31.046875 -65.082031 31.203125 -62.65625 C 31.367188 -60.238281 31.453125 -59.03125 31.453125 -59.03125 L 32.265625 -54.515625 L 36.9375 -54.03125 L 42.09375 -57.421875 L 46.78125 -58.71875 L 52.90625 -60.640625 L 57.265625 -59.03125 C 57.265625 -59.03125 58.175781 -58.816406 60 -58.390625 C 61.832031 -57.960938 63.957031 -56.78125 66.375 -54.84375 C 68.789062 -52.90625 70.859375 -49.625 72.578125 -45 C 73.867188 -41.34375 74.941406 -36.988281 75.796875 -31.9375 C 76.660156 -26.882812 77.253906 -21.613281 77.578125 -16.125 Z M 77.90625 -7.75 "/></g></g></g><g fill="#ffffff" fill-opacity="1"><g transform="translate(124.025621, 113.544747)"><g><path d="M 35.8125 -66.453125 L 34.515625 -58.0625 L 35.484375 -39.515625 L 34.671875 -35.8125 C 34.671875 -35.8125 34.398438 -34.679688 33.859375 -32.421875 C 33.328125 -30.160156 33.0625 -28.0625 33.0625 -26.125 C 33.0625 -24.726562 33.171875 -23.195312 33.390625 -21.53125 C 33.609375 -19.863281 33.847656 -18.410156 34.109375 -17.171875 C 34.378906 -15.941406 34.515625 -15.328125 34.515625 -15.328125 L 33.71875 -11.9375 C 33.28125 -10.320312 32.550781 -8.894531 31.53125 -7.65625 C 30.507812 -6.425781 29.351562 -5.8125 28.0625 -5.8125 C 26.445312 -5.8125 25.367188 -6.347656 24.828125 -7.421875 C 24.296875 -8.492188 24.03125 -10.109375 24.03125 -12.265625 C 24.03125 -12.796875 24.191406 -13.707031 24.515625 -15 C 24.835938 -16.289062 25 -17.523438 25 -18.703125 L 24.515625 -29.1875 C 24.515625 -29.1875 24.429688 -30.070312 24.265625 -31.84375 C 24.109375 -33.625 23.945312 -35.910156 23.78125 -38.703125 C 23.625 -41.503906 23.546875 -44.359375 23.546875 -47.265625 C 23.546875 -49.953125 23.648438 -52.503906 23.859375 -54.921875 C 24.078125 -57.335938 24.457031 -59.300781 25 -60.8125 L 26.453125 -65.15625 L 28.0625 -69.84375 C 28.382812 -70.695312 28.972656 -71.472656 29.828125 -72.171875 C 30.691406 -72.878906 31.503906 -73.234375 32.265625 -73.234375 C 33.546875 -73.234375 34.320312 -72.53125 34.59375 -71.125 C 34.863281 -69.726562 35 -69.03125 35 -69.03125 Z M 34.515625 -103.71875 C 34.515625 -100.707031 33.785156 -98.175781 32.328125 -96.125 C 30.878906 -94.082031 29.351562 -93.007812 27.75 -92.90625 C 27.632812 -92.90625 27.523438 -92.90625 27.421875 -92.90625 C 27.316406 -92.90625 27.15625 -92.90625 26.9375 -92.90625 C 25.863281 -92.90625 24.867188 -93.039062 23.953125 -93.3125 C 23.035156 -93.582031 22.414062 -94.039062 22.09375 -94.6875 L 20.15625 -97.90625 L 20.96875 -102.421875 L 24.84375 -106.296875 L 26.9375 -109.515625 L 30.328125 -109.203125 C 31.722656 -108.984375 32.769531 -108.46875 33.46875 -107.65625 C 34.164062 -106.851562 34.515625 -105.539062 34.515625 -103.71875 Z M 34.515625 -103.71875 "/></g></g></g><g fill="#ffffff" fill-opacity="1"><g transform="translate(155.148973, 113.544747)"><g><path d="M 35.8125 -66.453125 L 34.515625 -58.0625 L 35.484375 -39.515625 L 34.671875 -35.8125 C 34.671875 -35.8125 34.398438 -34.679688 33.859375 -32.421875 C 33.328125 -30.160156 33.0625 -28.0625 33.0625 -26.125 C 33.0625 -24.726562 33.171875 -23.195312 33.390625 -21.53125 C 33.609375 -19.863281 33.847656 -18.410156 34.109375 -17.171875 C 34.378906 -15.941406 34.515625 -15.328125 34.515625 -15.328125 L 33.71875 -11.9375 C 33.28125 -10.320312 32.550781 -8.894531 31.53125 -7.65625 C 30.507812 -6.425781 29.351562 -5.8125 28.0625 -5.8125 C 26.445312 -5.8125 25.367188 -6.347656 24.828125 -7.421875 C 24.296875 -8.492188 24.03125 -10.109375 24.03125 -12.265625 C 24.03125 -12.796875 24.191406 -13.707031 24.515625 -15 C 24.835938 -16.289062 25 -17.523438 25 -18.703125 L 24.515625 -29.1875 C 24.515625 -29.1875 24.429688 -30.070312 24.265625 -31.84375 C 24.109375 -33.625 23.945312 -35.910156 23.78125 -38.703125 C 23.625 -41.503906 23.546875 -44.359375 23.546875 -47.265625 C 23.546875 -49.953125 23.648438 -52.503906 23.859375 -54.921875 C 24.078125 -57.335938 24.457031 -59.300781 25 -60.8125 L 26.453125 -65.15625 L 28.0625 -69.84375 C 28.382812 -70.695312 28.972656 -71.472656 29.828125 -72.171875 C 30.691406 -72.878906 31.503906 -73.234375 32.265625 -73.234375 C 33.546875 -73.234375 34.320312 -72.53125 34.59375 -71.125 C 34.863281 -69.726562 35 -69.03125 35 -69.03125 Z M 34.515625 -103.71875 C 34.515625 -100.707031 33.785156 -98.175781 32.328125 -96.125 C 30.878906 -94.082031 29.351562 -93.007812 27.75 -92.90625 C 27.632812 -92.90625 27.523438 -92.90625 27.421875 -92.90625 C 27.316406 -92.90625 27.15625 -92.90625 26.9375 -92.90625 C 25.863281 -92.90625 24.867188 -93.039062 23.953125 -93.3125 C 23.035156 -93.582031 22.414062 -94.039062 22.09375 -94.6875 L 20.15625 -97.90625 L 20.96875 -102.421875 L 24.84375 -106.296875 L 26.9375 -109.515625 L 30.328125 -109.203125 C 31.722656 -108.984375 32.769531 -108.46875 33.46875 -107.65625 C 34.164062 -106.851562 34.515625 -105.539062 34.515625 -103.71875 Z M 34.515625 -103.71875 "/></g></g></g><g fill="#ffffff" fill-opacity="1"><g transform="translate(187.885309, 113.544747)"><g><path d="M 83.875 -63.546875 C 83.875 -62.898438 83.628906 -61.984375 83.140625 -60.796875 C 82.660156 -59.617188 82.148438 -58.546875 81.609375 -57.578125 C 81.078125 -56.609375 80.8125 -56.125 80.8125 -56.125 C 80.8125 -56.125 80.515625 -55.75 79.921875 -55 C 79.328125 -54.25 78.332031 -53.820312 76.9375 -53.71875 L 63.875 -52.75 L 58.71875 -51.9375 L 57.421875 -50 L 62.265625 -37.421875 L 68.0625 -27.421875 L 69.6875 -22.421875 L 78.234375 -8.703125 C 79.085938 -7.304688 79.648438 -5.960938 79.921875 -4.671875 C 80.191406 -3.378906 80.328125 -2.035156 80.328125 -0.640625 C 80.328125 0.859375 79.921875 2.519531 79.109375 4.34375 C 78.304688 6.175781 76.992188 7.09375 75.171875 7.09375 C 74.085938 7.09375 73.222656 6.148438 72.578125 4.265625 C 71.929688 2.390625 71.179688 0.644531 70.328125 -0.96875 L 68.0625 -5.8125 L 65.8125 -9.1875 L 64.515625 -14.1875 L 62.578125 -16.9375 L 56.453125 -28.234375 L 51.9375 -34.03125 L 50.640625 -38.875 C 50.640625 -38.875 50.316406 -39.382812 49.671875 -40.40625 C 49.035156 -41.425781 48.148438 -42.445312 47.015625 -43.46875 C 45.890625 -44.488281 44.570312 -45 43.0625 -45 C 40.476562 -45 38.082031 -44.59375 35.875 -43.78125 C 33.675781 -42.976562 32.253906 -41.019531 31.609375 -37.90625 L 30.484375 -31.609375 L 29.359375 -27.09375 L 29.671875 -16.78125 L 29.03125 -5.8125 C 28.925781 -3.445312 28.601562 -1.722656 28.0625 -0.640625 C 27.53125 0.429688 26.457031 0.96875 24.84375 0.96875 C 23.875 0.96875 23.203125 0.617188 22.828125 -0.078125 C 22.453125 -0.773438 21.78125 -1.984375 20.8125 -3.703125 C 20.164062 -4.671875 19.707031 -5.800781 19.4375 -7.09375 C 19.164062 -8.382812 19.03125 -9.625 19.03125 -10.8125 C 19.03125 -11.34375 19.054688 -11.875 19.109375 -12.40625 C 19.160156 -12.945312 19.242188 -13.4375 19.359375 -13.875 L 20.640625 -20.328125 L 20.328125 -27.265625 L 21.453125 -39.359375 L 20.96875 -43.71875 L 21.78125 -61.9375 L 22.75 -67.421875 L 22.265625 -104.6875 C 22.265625 -106.832031 22.800781 -108.578125 23.875 -109.921875 C 24.945312 -111.265625 26.398438 -111.9375 28.234375 -111.9375 C 29.734375 -111.9375 30.832031 -111.316406 31.53125 -110.078125 C 32.226562 -108.847656 32.578125 -107.910156 32.578125 -107.265625 L 33.0625 -99.6875 L 31.125 -91.453125 L 31.453125 -80 L 30.484375 -62.09375 C 30.484375 -61.988281 30.484375 -61.851562 30.484375 -61.6875 C 30.484375 -61.53125 30.484375 -61.34375 30.484375 -61.125 C 30.484375 -58.113281 31.613281 -56.234375 33.875 -55.484375 C 33.976562 -55.484375 34.082031 -55.484375 34.1875 -55.484375 C 34.300781 -55.484375 34.410156 -55.484375 34.515625 -55.484375 C 35.265625 -55.484375 36.070312 -55.617188 36.9375 -55.890625 C 37.800781 -56.160156 38.234375 -56.296875 38.234375 -56.296875 L 42.578125 -57.578125 L 49.84375 -58.0625 L 57.265625 -61.296875 C 60.378906 -62.691406 63.46875 -63.65625 66.53125 -64.1875 C 69.59375 -64.726562 72.253906 -65 74.515625 -65 C 75.265625 -65 75.988281 -65 76.6875 -65 C 77.394531 -65 78.125 -65 78.875 -65 C 80.269531 -65 81.453125 -64.914062 82.421875 -64.75 C 83.390625 -64.59375 83.875 -64.191406 83.875 -63.546875 Z M 83.875 -63.546875 "/></g></g></g><g fill="#ffffff" fill-opacity="1"><g transform="translate(260.619515, 113.544747)"><g><path d="M 74.515625 -37.09375 C 74.515625 -33.757812 73.492188 -30.34375 71.453125 -26.84375 C 69.410156 -23.351562 66.859375 -20.128906 63.796875 -17.171875 C 60.734375 -14.222656 57.691406 -11.832031 54.671875 -10 C 51.660156 -8.175781 49.191406 -7.265625 47.265625 -7.265625 C 42.960938 -7.265625 39.035156 -7.828125 35.484375 -8.953125 C 31.929688 -10.078125 29.132812 -11.203125 27.09375 -12.328125 C 25.050781 -13.460938 24.03125 -14.03125 24.03125 -14.03125 L 19.84375 -15.96875 L 15.96875 -23.0625 C 15.96875 -23.0625 15.644531 -23.84375 15 -25.40625 C 14.351562 -26.96875 13.679688 -28.929688 12.984375 -31.296875 C 12.285156 -33.660156 11.9375 -35.972656 11.9375 -38.234375 C 11.9375 -41.453125 12.710938 -44.863281 14.265625 -48.46875 C 15.828125 -52.070312 18.003906 -55.457031 20.796875 -58.625 C 23.597656 -61.800781 26.851562 -64.382812 30.5625 -66.375 C 34.269531 -68.363281 38.222656 -69.359375 42.421875 -69.359375 C 43.390625 -69.359375 44.625 -69.195312 46.125 -68.875 C 47.632812 -68.550781 48.390625 -68.390625 48.390625 -68.390625 L 51.609375 -66.296875 L 57.09375 -63.71875 L 58.875 -60.96875 C 58.875 -60.96875 59.648438 -60.210938 61.203125 -58.703125 C 62.765625 -57.203125 64.59375 -55.269531 66.6875 -52.90625 C 68.789062 -50.539062 70.617188 -47.957031 72.171875 -45.15625 C 73.734375 -42.363281 74.515625 -39.675781 74.515625 -37.09375 Z M 65.15625 -37.09375 L 63.875 -43.0625 L 60.96875 -46.125 L 58.390625 -47.421875 L 52.90625 -54.203125 L 46.125 -55.96875 L 41.9375 -57.578125 C 41.9375 -57.578125 40.859375 -57.28125 38.703125 -56.6875 C 36.554688 -56.101562 34.113281 -55.082031 31.375 -53.625 C 28.632812 -52.175781 26.1875 -50.082031 24.03125 -47.34375 C 21.882812 -44.601562 20.8125 -41.023438 20.8125 -36.609375 C 20.8125 -33.171875 22.15625 -30.160156 24.84375 -27.578125 C 27.53125 -24.992188 30.753906 -23.03125 34.515625 -21.6875 C 38.273438 -20.34375 41.71875 -19.671875 44.84375 -19.671875 C 46.457031 -19.671875 48.421875 -20.046875 50.734375 -20.796875 C 53.046875 -21.554688 55.300781 -22.632812 57.5 -24.03125 C 59.707031 -25.425781 61.5625 -27.066406 63.0625 -28.953125 C 64.570312 -30.835938 65.328125 -32.960938 65.328125 -35.328125 C 65.328125 -36.078125 65.269531 -36.664062 65.15625 -37.09375 Z M 65.15625 -37.09375 "/></g></g></g><g fill="#ffffff" fill-opacity="1"><g transform="translate(322.552248, 113.544747)"><g/></g></g></g></g></g><g transform="matrix(1, 0, 0, 1, 281, 0)"><g clip-path="url(#118be22bc4)"><g fill="#ffffff" fill-opacity="1"><g transform="translate(0.902366, 70.873855)"><g><path d="M 21.15625 -10.796875 C 21.15625 -8.566406 20.429688 -6.601562 18.984375 -4.90625 C 17.546875 -3.21875 15.929688 -2.375 14.140625 -2.375 C 12.484375 -2.375 11.113281 -3.039062 10.03125 -4.375 C 8.957031 -5.707031 8.421875 -7.414062 8.421875 -9.5 C 8.421875 -11.582031 8.757812 -13.054688 9.4375 -13.921875 C 10.125 -14.785156 10.789062 -15.304688 11.4375 -15.484375 C 12.082031 -15.660156 12.40625 -15.75 12.40625 -15.75 L 16.828125 -16.1875 L 18.015625 -15 C 18.015625 -15 18.285156 -14.875 18.828125 -14.625 C 19.367188 -14.375 19.890625 -13.957031 20.390625 -13.375 C 20.898438 -12.800781 21.15625 -11.941406 21.15625 -10.796875 Z M 21.15625 -10.796875 "/></g></g></g><g fill="#ffffff" fill-opacity="1"><g transform="translate(13.849427, 70.873855)"><g><path d="M 21.15625 -10.796875 C 21.15625 -8.566406 20.429688 -6.601562 18.984375 -4.90625 C 17.546875 -3.21875 15.929688 -2.375 14.140625 -2.375 C 12.484375 -2.375 11.113281 -3.039062 10.03125 -4.375 C 8.957031 -5.707031 8.421875 -7.414062 8.421875 -9.5 C 8.421875 -11.582031 8.757812 -13.054688 9.4375 -13.921875 C 10.125 -14.785156 10.789062 -15.304688 11.4375 -15.484375 C 12.082031 -15.660156 12.40625 -15.75 12.40625 -15.75 L 16.828125 -16.1875 L 18.015625 -15 C 18.015625 -15 18.285156 -14.875 18.828125 -14.625 C 19.367188 -14.375 19.890625 -13.957031 20.390625 -13.375 C 20.898438 -12.800781 21.15625 -11.941406 21.15625 -10.796875 Z M 21.15625 -10.796875 "/></g></g></g></g></g></g></g></svg>