<svg xmlns="http://www.w3.org/2000/svg" xmlns:xlink="http://www.w3.org/1999/xlink" width="500" zoomAndPan="magnify" viewBox="0 0 375 374.999991" height="500" preserveAspectRatio="xMidYMid meet" version="1.0"><defs><clipPath id="466a0bb8a8"><path d="M 91.6875 91.6875 L 282.9375 91.6875 L 282.9375 279 L 91.6875 279 Z M 91.6875 91.6875 " clip-rule="nonzero"/></clipPath></defs><g clip-path="url(#466a0bb8a8)"><path fill="#ffffff" d="M 187.496094 91.6875 C 134.5625 91.6875 91.6875 134.5625 91.6875 187.496094 C 91.6875 229.890625 119.113281 265.699219 157.195312 278.390625 C 161.988281 279.230469 163.78125 276.355469 163.78125 273.839844 C 163.78125 271.566406 163.664062 264.019531 163.664062 255.996094 C 139.59375 260.429688 133.363281 250.128906 131.449219 244.738281 C 130.371094 241.984375 125.699219 233.484375 121.628906 231.207031 C 118.273438 229.410156 113.484375 224.980469 121.507812 224.859375 C 129.054688 224.738281 134.441406 231.804688 136.238281 234.679688 C 144.863281 249.171875 158.632812 245.097656 164.140625 242.585938 C 164.980469 236.355469 167.496094 232.164062 170.25 229.769531 C 148.933594 227.375 126.65625 219.113281 126.65625 182.464844 C 126.65625 172.046875 130.371094 163.425781 136.476562 156.71875 C 135.519531 154.324219 132.167969 144.503906 137.4375 131.328125 C 137.4375 131.328125 145.460938 128.8125 163.78125 141.148438 C 171.449219 138.992188 179.589844 137.914062 187.734375 137.914062 C 195.878906 137.914062 204.023438 138.992188 211.6875 141.148438 C 230.007812 128.695312 238.035156 131.328125 238.035156 131.328125 C 243.300781 144.503906 239.949219 154.324219 238.992188 156.71875 C 245.097656 163.425781 248.8125 171.925781 248.8125 182.464844 C 248.8125 219.230469 226.417969 227.375 205.101562 229.769531 C 208.574219 232.765625 211.566406 238.511719 211.566406 247.496094 C 211.566406 260.308594 211.445312 270.609375 211.445312 273.839844 C 211.445312 276.355469 213.242188 279.351562 218.035156 278.390625 C 255.878906 265.699219 283.300781 229.769531 283.300781 187.496094 C 283.300781 134.5625 240.429688 91.6875 187.496094 91.6875 Z M 187.496094 91.6875 " fill-opacity="1" fill-rule="evenodd"/></g></svg>