<svg xmlns="http://www.w3.org/2000/svg" xmlns:xlink="http://www.w3.org/1999/xlink" width="500" zoomAndPan="magnify" viewBox="0 0 375 374.999991" height="500" preserveAspectRatio="xMidYMid meet" version="1.0"><path fill="#ffffff" d="M 158.800781 218.089844 C 148.398438 218.515625 138.136719 219.957031 128.015625 222.40625 C 117.898438 224.855469 108.113281 228.269531 98.667969 232.648438 L 149.726562 94.027344 C 151.203125 89.804688 153.738281 87.273438 156.902344 87.273438 L 218.089844 87.273438 C 221.253906 87.273438 223.785156 89.804688 225.261719 94.027344 L 276.324219 232.648438 C 276.324219 232.648438 251.847656 217.878906 216.191406 217.878906 L 193.824219 148.460938 C 192.980469 144.875 190.449219 142.554688 187.707031 142.554688 C 184.964844 142.554688 182.433594 144.875 181.589844 148.25 Z M 156.480469 277.589844 Z M 147.617188 234.96875 C 143.398438 248.894531 146.351562 268.304688 156.480469 277.589844 C 156.609375 277.09375 156.75 276.601562 156.902344 276.113281 C 157.027344 275.425781 157.214844 274.753906 157.460938 274.101562 C 157.710938 273.445312 158.011719 272.820312 158.375 272.21875 C 158.734375 271.621094 159.144531 271.058594 159.609375 270.535156 C 160.070312 270.011719 160.578125 269.53125 161.125 269.097656 C 161.675781 268.664062 162.257812 268.285156 162.875 267.957031 C 163.492188 267.628906 164.132812 267.359375 164.800781 267.148438 C 165.46875 266.933594 166.148438 266.785156 166.839844 266.695312 C 167.535156 266.605469 168.230469 266.582031 168.929688 266.617188 C 174.835938 266.828125 178 269.78125 178.84375 276.535156 C 179.265625 278.855469 179.265625 281.386719 179.265625 283.917969 L 179.265625 284.761719 C 179.265625 290.460938 180.742188 295.734375 183.910156 300.375 C 185.359375 302.652344 187.109375 304.671875 189.160156 306.433594 C 191.207031 308.195312 193.464844 309.621094 195.933594 310.714844 L 195.933594 310.082031 L 195.511719 309.449219 C 191.714844 297.632812 194.457031 289.40625 204.796875 282.441406 L 207.960938 280.332031 C 210.253906 278.84375 212.503906 277.296875 214.714844 275.691406 C 216.699219 274.316406 218.519531 272.746094 220.167969 270.980469 C 221.816406 269.214844 223.261719 267.296875 224.5 265.222656 C 225.738281 263.148438 226.742188 260.964844 227.507812 258.675781 C 228.277344 256.382812 228.796875 254.039062 229.0625 251.636719 C 229.695312 247.417969 229.273438 243.199219 227.796875 238.976562 L 226.105469 240.242188 L 222.730469 242.355469 C 219.058594 244.035156 215.28125 245.425781 211.390625 246.523438 C 207.503906 247.621094 203.554688 248.410156 199.546875 248.890625 C 195.535156 249.375 191.511719 249.546875 187.472656 249.40625 C 183.4375 249.265625 179.4375 248.8125 175.46875 248.050781 C 164.917969 246.574219 155.003906 243.832031 147.617188 234.96875 Z M 147.617188 234.96875 " fill-opacity="1" fill-rule="nonzero"/></svg>