<?xml version="1.0" encoding="UTF-8"?>
<svg id="Layer_2" data-name="Layer 2" xmlns="http://www.w3.org/2000/svg" viewBox="0 0 262.46 84.27">
  <defs>
    <style>
      .cls-1 {
        fill: #fff;
      }
    </style>
  </defs>
  <g id="_Qué_es_el_compufest_1_" data-name="¿Qué es el compufest[1]?">
    <g id="Logo">
      <g>
        <path class="cls-1" d="M11.41,27.83c-1.97,0-3.69-.4-5.16-1.2-1.48-.8-2.62-1.97-3.45-3.49-.82-1.53-1.24-3.31-1.24-5.36v-6.8c0-2.08.41-3.87,1.24-5.38.82-1.51,1.97-2.67,3.45-3.47,1.48-.8,3.2-1.2,5.16-1.2,2.86,0,5.17.82,6.92,2.45,1.75,1.64,2.68,3.87,2.8,6.7h-4.64c-.09-1.48-.58-2.63-1.48-3.45-.9-.82-2.1-1.23-3.6-1.23-1.59,0-2.85.48-3.77,1.44-.93.96-1.39,2.32-1.39,4.08v6.84c0,1.76.46,3.13,1.39,4.11.93.98,2.18,1.46,3.77,1.46,1.5,0,2.7-.41,3.6-1.23.9-.82,1.39-1.97,1.48-3.45h4.64c-.12,2.83-1.05,5.07-2.8,6.7-1.75,1.64-4.06,2.45-6.92,2.45Z"/>
        <path class="cls-1" d="M39.44,28.14c-2.14,0-4-.42-5.58-1.25-1.58-.83-2.8-2.03-3.66-3.59-.87-1.56-1.3-3.41-1.3-5.55v-6.05c0-2.14.43-4,1.3-5.55.87-1.56,2.09-2.76,3.66-3.59,1.58-.83,3.43-1.25,5.58-1.25s4.04.42,5.6,1.25c1.56.84,2.77,2.03,3.64,3.59.87,1.56,1.3,3.41,1.3,5.55v6.05c0,2.14-.43,4-1.3,5.55-.87,1.56-2.09,2.76-3.66,3.59-1.58.83-3.44,1.25-5.58,1.25ZM39.05,23.69c1.74,0,3.09-.48,4.04-1.45.95-.97,1.43-2.35,1.43-4.16v-6.75c0-1.84-.48-3.23-1.43-4.18-.95-.95-2.3-1.43-4.04-1.43s-3.05.48-4.02,1.43c-.97.95-1.45,2.35-1.45,4.18v6.75c0,1.81.48,3.19,1.45,4.16.97.97,2.31,1.45,4.02,1.45Z"/>
        <path class="cls-1" d="M55.45,28.05V1.5h4.69v3.12h1.04l-.89,1.52c0-1.41.4-2.55,1.2-3.44.8-.89,1.85-1.34,3.16-1.34,1.44,0,2.59.55,3.47,1.66.87,1.11,1.31,2.54,1.31,4.29l-1.17-1.91h1.47l-.9.9c.03-1.49.46-2.67,1.28-3.54.81-.86,1.88-1.29,3.21-1.3,1.53-.02,3.02.66,4,1.84,1.05,1.26,1.57,2.87,1.57,4.86v19.89h-4.69V8.65c0-.94-.21-1.68-.62-2.23-.42-.55-1-.82-1.74-.82s-1.32.27-1.72.8c-.4.53-.6,1.27-.6,2.2v19.45h-3.9V8.65c0-.94-.2-1.68-.6-2.23-.4-.55-.97-.82-1.72-.82s-1.32.27-1.74.8c-.42.53-.62,1.27-.62,2.2v19.45h-5.47Z"/>
        <path class="cls-1" d="M85.9,35.86V1.5h4.69v5.47h1.09l-1.32,1.73c0-2.24.67-4.01,2.01-5.31,1.34-1.29,3.12-1.94,5.32-1.94,1.7,0,3.19.4,4.47,1.19,1.28.8,2.27,1.92,2.98,3.37.71,1.45,1.06,3.16,1.06,5.12v7.25c0,1.96-.35,3.68-1.04,5.14-.69,1.47-1.68,2.6-2.96,3.39-1.28.79-2.79,1.19-4.52,1.19-2.21,0-3.98-.65-5.32-1.96-1.34-1.31-2.01-3.07-2.01-5.28l1.32,1.73h-1.22l.13,6.04v7.24h-4.69ZM95.69,23.48c1.59,0,2.83-.43,3.72-1.29.89-.86,1.33-2.19,1.33-4v-6.98c0-1.84-.44-3.18-1.33-4.02-.89-.84-2.13-1.26-3.72-1.26s-2.84.48-3.74,1.45c-.9.97-1.36,2.32-1.36,4.07v6.52c0,1.75.45,3.1,1.36,4.07.9.96,2.15,1.45,3.74,1.45Z"/>
        <path class="cls-1" d="M123.34,27.73c-3.07,0-5.53-.9-7.36-2.69-1.83-1.8-2.75-4.24-2.75-7.33V1.5h5.47v16.21c0,1.72.45,3.09,1.34,4.1.89,1.02,2.12,1.52,3.69,1.52s2.85-.51,3.76-1.52c.91-1.01,1.36-2.38,1.36-4.1V1.5h4.69v16.21c0,3.09-.92,5.54-2.77,7.33-1.85,1.8-4.32,2.69-7.43,2.69Z"/>
        <path class="cls-1" d="M7.03,84.27v-17.96H0v-4.69h7.03v-4.87c0-2.11.66-3.78,1.98-5.01,1.32-1.22,3.12-1.84,5.41-1.84h7.45v4.69h-7.4c-.87,0-1.54.23-2.03.68-.48.46-.72,1.11-.72,1.95v4.39h10.15v4.69h-10.15v17.96h-4.69Z"/>
        <path class="cls-1" d="M38.94,84.07c-2.01,0-3.78-.4-5.29-1.2-1.52-.8-2.69-1.94-3.51-3.41-.83-1.47-1.24-3.21-1.24-5.2v-6.01c0-2.12.43-3.95,1.3-5.48.87-1.53,2.1-2.72,3.69-3.56,1.59-.84,3.44-1.26,5.55-1.26s4,.41,5.58,1.24c1.58.83,2.8,1.98,3.66,3.47.87,1.48,1.3,3.24,1.3,5.27v4.64h-16.4v2.01c0,1.73.48,3.06,1.44,4.02.96.95,2.27,1.43,3.92,1.43,1.35,0,2.48-.25,3.38-.74.9-.49,1.44-1.17,1.62-2.03h4.82c-.33,2.08-1.39,3.74-3.18,4.98-1.79,1.23-4,1.85-6.65,1.85ZM44.51,69.08v-1.59c0-1.87-.47-3.33-1.4-4.38-.93-1.05-2.29-1.57-4.07-1.57s-3.09.52-4.04,1.57c-.95,1.05-1.42,2.52-1.42,4.43v1.12l11.3-.05-.37.47Z"/>
        <path class="cls-1" d="M66.57,84.27c-2.01,0-3.75-.31-5.22-.93-1.47-.62-2.59-1.52-3.35-2.68-.77-1.16-1.15-2.56-1.15-4.19h5.34c0,.99.35,1.75,1.06,2.3.7.55,1.7.82,3,.82h2.2c1.43,0,2.54-.3,3.33-.89.79-.59,1.19-1.44,1.19-2.53,0-1-.25-1.77-.75-2.31-.5-.53-1.27-.86-2.31-.98l-6.62-.91c-1.86-.24-3.29-.98-4.29-2.21-1-1.23-1.51-2.84-1.51-4.82,0-2.28.77-4.06,2.31-5.32,1.54-1.26,3.72-1.89,6.55-1.89h2.11c2.7,0,4.9.64,6.58,1.93,1.68,1.29,2.57,2.99,2.67,5.09h-4.94c-.07-.91-.5-1.65-1.28-2.24-.79-.59-1.84-.88-3.15-.88h-1.97c-1.35,0-2.39.29-3.13.87-.74.58-1.11,1.37-1.11,2.38,0,.85.23,1.5.68,1.95.45.46,1.12.75,2,.87l6.4.85c2.29.31,4.01,1.15,5.16,2.5,1.15,1.35,1.72,3.17,1.72,5.46,0,2.45-.82,4.36-2.47,5.72-1.65,1.37-4.01,2.05-7.09,2.05h-1.95Z"/>
        <path class="cls-1" d="M98.23,83.49c-2.34,0-4.2-.67-5.57-2.01-1.38-1.34-2.07-3.14-2.07-5.4v-13.67h-7.03v-4.69h7.03v-7.03h5.47v7.03h10.15v4.69h-10.15v13.67c0,.8.23,1.46.69,1.97s1.07.76,1.83.76h7.64v4.69h-7.98Z"/>
      </g>
      <g>
        <path class="cls-1" d="M158.31,84.27V0h19.08v8.75h-11.13v66.78h11.13v8.75h-19.08Z"/>
        <path class="cls-1" d="M194.88,74.73v-8.75h14.31V18.2l-14.31,12.93v-11.49l12.27-10.9h9.99v56.45l11.93.8v8.75h-34.19Z"/>
        <path class="cls-1" d="M243.38,84.27v-8.75h11.13V8.75h-11.13V0h19.08v84.27h-19.08Z"/>
      </g>
    </g>
  </g>
</svg>