<?xml version="1.0" encoding="UTF-8"?>
<svg id="Layer_2" data-name="Layer 2" xmlns="http://www.w3.org/2000/svg" viewBox="0 0 512 464.43">
  <defs>
    <style>
      .cls-1 {
        fill: #fff;
      }
    </style>
  </defs>
  <g id="logo">
    <g>
      <path class="cls-1" d="M31.3,340.03l19.7,26.6h7.8v-39.7h-8.1v26.1l-19.5-26.1h-8v39.7h8.1s0-26.6,0-26.6ZM225.2,326.83h-33.7v8.4h12.7v31.4h8.5v-31.3h12.4l.1-8.5ZM222.8,461.83h16.7v-75h-16.7v75ZM135.7,340.03l19.7,26.6h7.8v-39.7h-8.1v26.1l-19.5-26.1h-8v39.7h8.1v-26.6ZM173.4,441.23l-15.9-54.4h-13.3l-15.8,54.2-14.4-54.2h-16.3l21.2,75h18l14-49.4,13.9,49.4h18.1l21.3-75h-16.3l-14.5,54.4ZM54.3,416.33c-10.8-1.8-17.8-3.8-17.8-8.8,0-5.8,7.8-8.1,18.2-8.1,9.7,0,19.5,3.7,22.9,5.2l5.3-13c-3.8-1.5-15.7-5.8-29-5.8-16.2,0-33.4,7.9-33.4,22.5,0,11.9,8.4,17.9,29.9,21.6,15.1,2.6,23.5,4,23.3,10.6-.1,3.6-2.9,9.6-20,9.6-13.7,0-23.4-5-26.8-7l-7.1,12.8c3.8,2,16.5,7.9,32.8,7.9,23.8,0,36.4-8.3,36.4-23.9.1-9-3-18.4-34.7-23.6M97.7,326.83h-8.8v39.7h8.8v-39.7ZM353.7,366.53v-39.7h-8v26.1l-19.5-26.1h-8v39.7h8.1v-26.6l19.7,26.6h7.7ZM285.2,359.23h-22.8v-9.3h21.1v-7.2h-21.1v-8.6h22.8v-7.3h-30.9v39.7h30.9v-7.3h0ZM471,325.53c-11.7,0-21.2,9.5-21.2,21.2s9.5,21.2,21.2,21.2,21.2-9.5,21.2-21.2-9.5-21.2-21.2-21.2M471,359.13c-6.8,0-12.3-5.5-12.3-12.4s5.5-12.4,12.3-12.4,12.3,5.5,12.3,12.4c.1,6.8-5.5,12.4-12.3,12.4M473.7,416.43h-35v-29.5h-15.5v75h15.5v-29.9h35v29.9h15.5v-75h-15.5v29.5ZM257.7,402.83h23.9v59.1h16.1v-59.1h23.4v-15.9h-63.4v15.9h0ZM373.3,401.13c8.5,0,16.3,4.5,20.6,11.6l12.2-10.6c-7.5-11.1-19.8-17.7-33.2-17.7-22,0-40,17.9-40,40s18,40,40,40c13.4,0,25.8-6.6,33.2-17.7l-12.2-10.6c-4.2,7.1-12.1,11.6-20.6,11.6-13.1,0-23.8-10.5-23.8-23.3s10.7-23.3,23.8-23.3M403.7,326.83h-16.4v39.7h16.4c11.3,0,20.4-8.9,20.4-19.9s-9.1-19.8-20.4-19.8M404.1,358.23h-8.7v-23h8.7c6.4,0,11.5,5.2,11.5,11.5.1,6.4-5.1,11.5-11.5,11.5"/>
      <path class="cls-1" d="M127.1,4.13h-58.5C30.7,4.13,0,34.83,0,72.73v130.4c0,37.9,30.7,68.6,68.6,68.6h58.5c1.1,0,2-.9,2-2V6.13c0-1.1-.8-2-2-2ZM107.5,250.23h-38.9c-12.6,0-24.4-4.9-33.3-13.8s-13.8-20.7-13.8-33.3V72.83c0-12.6,4.9-24.4,13.8-33.3,8.9-8.9,20.7-13.8,33.3-13.8h38.9v224.5h0ZM66.8,59.33c13.9,0,25.2,11.3,25.2,25.2s-11.2,25.1-25.2,25.1-25.1-11.3-25.1-25.2,11.3-25.1,25.1-25.1ZM199,4.13h-41.4c-1,0-1.7.8-1.7,1.8v264c0,1.1.9,2,1.9,2h41.2c37.9,0,68.6-30.7,68.6-68.6V72.83c.1-37.9-30.7-68.6-68.6-68.7h0ZM208.8,178.43c-15,0-27.1-12.1-27.1-27.1s12.1-27.1,27.1-27.1,27.1,12.1,27.1,27.1-12.1,27.1-27.1,27.1Z"/>
      <path class="cls-1" d="M312.8,271.83v-46c4.8-3.9,22.7-19.4,41.7-35.7,17.1-14.7,34.2-29.5,51.6-43.8,13.1-10.8,38.1-30.6,38.8-50,.9-22.8-15.3-37.6-39.4-37.6-14.4,0-31.3,8-41.6,16.7-10.3,8.7-23.4,20-23.4,20l-37.9-41.1C334.8,18.23,369.4.03,405.4.03c76.8-1.9,134.7,83.7,76.3,150.8-21.2,23.4-45.3,45.3-70,64.7h100.3v56.3h-199.2Z"/>
    </g>
  </g>
</svg>