<?xml version="1.0" encoding="UTF-8"?>
<svg id="Capa_2" data-name="Capa 2" xmlns="http://www.w3.org/2000/svg" viewBox="0 0 385.4 385.4">
  <defs>
    <style>
      .cls-1 {
        fill: #ef7a22;
        stroke-width: 0px;
      }
    </style>
  </defs>
  <g id="IMAGOTIPO">
    <g>
      <path class="cls-1" d="m325.5,178.46c-9.4-2.1-17.65,6.14-15.54,15.54,1.06,4.74,4.89,8.56,9.63,9.62,9.4,2.1,17.64-6.14,15.54-15.54-1.06-4.74-4.88-8.57-9.62-9.63Z"/>
      <path class="cls-1" d="m65.82,178.46c-9.4-2.1-17.64,6.14-15.54,15.54,1.06,4.74,4.88,8.57,9.62,9.63,9.4,2.1,17.64-6.14,15.54-15.54-1.06-4.74-4.88-8.57-9.62-9.62Z"/>
      <path class="cls-1" d="m0,42.18v301.03c0,23.3,18.89,42.18,42.18,42.18h137.49c-.12-.72-.2-1.45-.2-2.2v-56.4c0-10.61-8.6-19.21-19.21-19.21H62.86c-7.3,0-13.23-5.92-13.23-13.23,0,0,.05-42.4.09-59.36,0-3.96-2.2-7.54-5.68-9.44-19.12-10.45-25.84-36.24-15.03-54.94,6.02-10.42,17.39-17.33,29.26-18.68,8.9-1.01,17.98,1.02,25.55,5.8,11.33,7.16,18.39,19.89,18.39,33.3,0,14.9-8.34,27.86-20.58,34.54-3.47,1.89-5.65,5.49-5.63,9.44.04,9.89.08,26.9.08,26.9,0,10.61,8.6,19.21,19.21,19.21h64.96c10.61,0,19.21-8.6,19.21-19.21v-123.39c0-4.03-2.25-7.67-5.77-9.61-11.96-6.62-19.82-19.27-20.34-32.94-.76-20.21,11.88-36.39,31.69-40.12,18.73-3.53,37.81,6.95,44.52,24.87,1.65,4.39,2.48,9.08,2.48,13.77,0,14.84-8.26,27.75-20.42,34.45-3.51,1.93-5.72,5.58-5.72,9.58v123.4c0,10.61,8.6,19.21,19.21,19.21h64.96c10.61,0,19.21-8.6,19.21-19.21l.17-26.68c.03-4.27-2.45-8.14-6.3-9.99-.09-.04-.16-.08-.2-.1-2.12-1.22-4.12-2.63-5.98-4.21-3.71-3.17-6.83-7.02-9.15-11.31-4.99-9.24-5.91-20.12-3.02-30.17,4.58-15.92,18.54-26.56,34.92-27.69,9.98-.69,19.99,2.48,27.72,8.84,9.05,7.43,14.42,18.72,14.42,30.43,0,14.85-8.28,27.78-20.46,34.47-3.54,1.94-5.77,5.6-5.76,9.64.04,17.06.09,59.2.09,59.2,0,3.65-1.48,6.96-3.87,9.35-2.39,2.39-5.7,3.87-9.35,3.87h-97.4c-10.61,0-19.21,8.6-19.21,19.21v56.4c0,.75-.08,1.48-.2,2.2h137.49c23.3,0,42.18-18.89,42.18-42.18V42.18c0-23.3-18.89-42.18-42.18-42.18H42.18C18.89,0,0,18.89,0,42.18Z"/>
      <path class="cls-1" d="m195.66,81.91c-9.4-2.1-17.65,6.14-15.54,15.54,1.06,4.74,4.88,8.56,9.62,9.62,9.4,2.1,17.64-6.13,15.54-15.54-1.06-4.74-4.88-8.57-9.62-9.63Z"/>
    </g>
  </g>
</svg>