<svg xmlns="http://www.w3.org/2000/svg" xmlns:xlink="http://www.w3.org/1999/xlink" width="500" zoomAndPan="magnify" viewBox="0 0 375 374.999991" height="500" preserveAspectRatio="xMidYMid meet" version="1.0"><defs><clipPath id="b379f9a1cd"><path d="M 42.792969 42.792969 L 332.292969 42.792969 L 332.292969 332.292969 L 42.792969 332.292969 Z M 42.792969 42.792969 " clip-rule="nonzero"/></clipPath></defs><path fill="#ef7a22" d="M 287.296875 176.847656 C 280.238281 175.269531 274.039062 181.457031 275.625 188.519531 C 276.421875 192.078125 279.296875 194.949219 282.859375 195.746094 C 289.917969 197.324219 296.109375 191.132812 294.53125 184.070312 C 293.734375 180.511719 290.867188 177.632812 287.304688 176.839844 Z M 287.296875 176.847656 " fill-opacity="1" fill-rule="nonzero"/><path fill="#ef7a22" d="M 92.234375 176.847656 C 85.171875 175.269531 78.984375 181.457031 80.5625 188.519531 C 81.359375 192.078125 84.226562 194.957031 87.789062 195.753906 C 94.847656 197.332031 101.039062 191.140625 99.460938 184.078125 C 98.664062 180.519531 95.796875 177.640625 92.234375 176.851562 Z M 92.234375 176.847656 " fill-opacity="1" fill-rule="nonzero"/><g clip-path="url(#b379f9a1cd)"><path fill="#ef7a22" d="M 42.792969 74.476562 L 42.792969 300.601562 C 42.792969 318.101562 56.980469 332.285156 74.476562 332.285156 L 177.753906 332.285156 C 177.664062 331.746094 177.605469 331.195312 177.605469 330.632812 L 177.605469 288.265625 C 177.605469 280.296875 171.144531 273.835938 163.175781 273.835938 L 90.011719 273.835938 C 84.527344 273.835938 80.074219 269.390625 80.074219 263.898438 C 80.074219 263.898438 80.109375 232.050781 80.140625 219.308594 C 80.140625 216.335938 78.488281 213.644531 75.875 212.21875 C 61.511719 204.367188 56.464844 184.996094 64.582031 170.949219 C 69.105469 163.121094 77.648438 157.929688 86.5625 156.917969 C 93.25 156.160156 100.070312 157.683594 105.753906 161.273438 C 114.265625 166.652344 119.570312 176.214844 119.570312 186.289062 C 119.570312 197.480469 113.304688 207.214844 104.109375 212.234375 C 101.503906 213.652344 99.867188 216.355469 99.882812 219.324219 C 99.910156 226.753906 99.941406 239.53125 99.941406 239.53125 C 99.941406 247.5 106.402344 253.960938 114.371094 253.960938 L 163.167969 253.960938 C 171.136719 253.960938 177.597656 247.5 177.597656 239.53125 L 177.597656 146.84375 C 177.597656 143.816406 175.90625 141.082031 173.261719 139.625 C 164.277344 134.652344 158.375 125.152344 157.984375 114.882812 C 157.414062 99.699219 166.90625 87.546875 181.789062 84.746094 C 195.859375 82.09375 210.191406 89.964844 215.230469 103.425781 C 216.46875 106.722656 217.09375 110.246094 217.09375 113.769531 C 217.09375 124.917969 210.890625 134.617188 201.753906 139.648438 C 199.117188 141.097656 197.457031 143.839844 197.457031 146.84375 L 197.457031 239.539062 C 197.457031 247.507812 203.917969 253.96875 211.886719 253.96875 L 260.683594 253.96875 C 268.652344 253.96875 275.113281 247.507812 275.113281 239.539062 L 275.242188 219.496094 C 275.265625 216.289062 273.402344 213.382812 270.507812 211.992188 C 270.441406 211.964844 270.390625 211.933594 270.359375 211.917969 C 268.765625 211 267.265625 209.941406 265.867188 208.753906 C 263.078125 206.375 260.734375 203.480469 258.992188 200.261719 C 255.246094 193.320312 254.554688 185.144531 256.726562 177.597656 C 260.164062 165.636719 270.652344 157.644531 282.957031 156.796875 C 290.453125 156.277344 297.972656 158.660156 303.777344 163.4375 C 310.578125 169.019531 314.609375 177.5 314.609375 186.296875 C 314.609375 197.449219 308.390625 207.164062 299.242188 212.1875 C 296.582031 213.644531 294.90625 216.394531 294.914062 219.429688 C 294.945312 232.246094 294.980469 263.898438 294.980469 263.898438 C 294.980469 266.640625 293.871094 269.125 292.074219 270.921875 C 290.28125 272.71875 287.792969 273.828125 285.050781 273.828125 L 211.886719 273.828125 C 203.917969 273.828125 197.457031 280.289062 197.457031 288.257812 L 197.457031 330.625 C 197.457031 331.1875 197.398438 331.738281 197.308594 332.277344 L 300.585938 332.277344 C 318.089844 332.277344 332.269531 318.089844 332.269531 300.59375 L 332.269531 74.476562 C 332.269531 56.976562 318.082031 42.792969 300.585938 42.792969 L 74.476562 42.792969 C 56.980469 42.792969 42.792969 56.980469 42.792969 74.476562 Z M 42.792969 74.476562 " fill-opacity="1" fill-rule="nonzero"/></g><path fill="#ef7a22" d="M 189.765625 104.320312 C 182.703125 102.742188 176.507812 108.933594 178.09375 115.992188 C 178.890625 119.554688 181.757812 122.425781 185.320312 123.21875 C 192.378906 124.796875 198.570312 118.617188 196.992188 111.546875 C 196.195312 107.988281 193.328125 105.109375 189.765625 104.3125 Z M 189.765625 104.320312 " fill-opacity="1" fill-rule="nonzero"/></svg>