<svg xmlns="http://www.w3.org/2000/svg" xmlns:xlink="http://www.w3.org/1999/xlink" width="500" zoomAndPan="magnify" viewBox="0 0 375 374.999991" height="500" preserveAspectRatio="xMidYMid meet" version="1.0"><path fill="#ffffff" d="M 93.171875 176.917969 C 96.007812 176.917969 100.328125 177.59375 100.328125 177.59375 L 100.464844 174.753906 C 100.464844 174.753906 96.410156 173.808594 92.765625 173.808594 C 84.523438 173.808594 82.5 178.808594 82.5 188.398438 C 82.5 197.582031 84.390625 202.851562 92.765625 202.851562 C 96.007812 202.851562 100.464844 201.90625 100.464844 201.90625 L 100.328125 199.070312 C 100.328125 199.070312 95.601562 199.746094 93.171875 199.746094 C 86.6875 199.746094 85.742188 195.964844 85.742188 188.398438 C 85.875 180.699219 86.957031 176.917969 93.171875 176.917969 Z M 93.171875 176.917969 " fill-opacity="1" fill-rule="nonzero"/><path fill="#ffffff" d="M 111.269531 181.78125 C 104.785156 181.78125 102.625 185.023438 102.625 192.046875 C 102.625 199.476562 104.515625 202.851562 111.269531 202.851562 C 118.023438 202.851562 119.914062 199.203125 119.914062 192.179688 C 119.914062 185.15625 117.347656 181.78125 111.269531 181.78125 Z M 111.269531 200.148438 C 106.542969 200.148438 105.730469 197.71875 105.730469 192.046875 C 105.730469 186.507812 106.949219 184.617188 111.269531 184.617188 C 115.1875 184.617188 116.808594 186.777344 116.808594 192.179688 C 116.808594 197.449219 116.132812 200.148438 111.269531 200.148438 Z M 111.269531 200.148438 " fill-opacity="1" fill-rule="nonzero"/><path fill="#ffffff" d="M 135.585938 182.320312 C 135.042969 182.183594 132.34375 181.78125 130.585938 181.78125 C 124.375 181.78125 122.078125 185.292969 122.078125 192.316406 C 122.078125 201.097656 125.320312 202.71875 129.234375 202.71875 C 132.207031 202.71875 135.3125 200.960938 135.3125 200.960938 L 135.3125 202.3125 L 138.285156 202.3125 L 138.285156 173.945312 L 135.585938 173.945312 Z M 135.585938 198.53125 C 135.585938 198.53125 132.613281 200.015625 129.910156 200.015625 C 127.480469 200.015625 125.320312 198.933594 125.320312 192.449219 C 125.320312 187.046875 126.667969 184.480469 130.855469 184.480469 C 132.476562 184.480469 135.042969 184.886719 135.585938 185.023438 Z M 135.585938 198.53125 " fill-opacity="1" fill-rule="nonzero"/><path fill="#ffffff" d="M 149.09375 181.78125 C 143.960938 181.78125 140.582031 184.75 140.582031 192.316406 C 140.582031 199.203125 142.472656 202.71875 148.6875 202.71875 C 151.929688 202.71875 156.523438 202.042969 156.523438 202.042969 L 156.386719 199.609375 C 156.386719 199.609375 152.0625 200.015625 148.957031 200.015625 C 144.90625 200.015625 143.6875 197.71875 143.554688 193.53125 L 156.925781 193.53125 L 157.0625 191.234375 C 157.195312 184.617188 154.359375 181.78125 149.09375 181.78125 Z M 143.554688 191.101562 C 143.554688 186.371094 145.445312 184.480469 148.957031 184.480469 C 152.46875 184.480469 153.957031 186.238281 153.957031 191.101562 Z M 143.554688 191.101562 " fill-opacity="1" fill-rule="nonzero"/><path fill="#ffffff" d="M 174.757812 198.394531 L 174.757812 188.535156 C 174.757812 183.941406 172.597656 181.914062 168.273438 181.914062 C 165.167969 181.914062 160.304688 182.726562 160.304688 182.726562 L 160.4375 185.292969 C 160.4375 185.292969 165.167969 184.75 168.136719 184.75 C 170.433594 184.75 171.648438 185.96875 171.648438 188.398438 L 171.648438 190.019531 L 165.167969 190.558594 C 160.980469 190.964844 159.089844 192.722656 159.089844 196.636719 C 159.089844 200.691406 160.980469 202.851562 164.625 202.851562 C 168.410156 202.851562 172.054688 201.230469 172.054688 201.230469 C 173.136719 202.3125 174.351562 202.851562 176.785156 202.851562 L 176.917969 200.285156 C 175.835938 200.015625 174.757812 199.609375 174.757812 198.394531 Z M 171.785156 199.070312 C 171.785156 199.070312 168.273438 200.285156 165.167969 200.285156 C 163.277344 200.285156 162.195312 199.070312 162.195312 196.636719 C 162.195312 194.613281 163.140625 193.394531 165.707031 192.992188 L 171.785156 192.449219 Z M 171.785156 199.070312 " fill-opacity="1" fill-rule="nonzero"/><path fill="#ffffff" d="M 187.589844 181.78125 C 184.617188 181.78125 181.375 183.535156 181.375 183.535156 L 181.375 182.183594 L 178.402344 182.183594 L 178.402344 202.445312 L 181.375 202.445312 L 181.375 186.101562 C 181.375 186.101562 184.484375 184.617188 187.050781 184.617188 C 190.695312 184.617188 191.371094 186.507812 191.371094 192.046875 L 191.371094 202.582031 L 194.34375 202.582031 L 194.34375 192.046875 C 194.34375 184.480469 193.128906 181.78125 187.589844 181.78125 Z M 187.589844 181.78125 " fill-opacity="1" fill-rule="nonzero"/><path fill="#ffffff" d="M 211.363281 182.320312 C 210.824219 182.183594 208.121094 181.78125 206.363281 181.78125 C 200.152344 181.78125 197.855469 185.292969 197.855469 192.316406 C 197.855469 201.097656 201.097656 202.71875 205.148438 202.71875 C 208.121094 202.71875 211.226562 200.960938 211.226562 200.960938 L 211.226562 202.3125 L 214.199219 202.3125 L 214.199219 173.945312 L 211.226562 173.945312 L 211.226562 182.320312 Z M 211.363281 198.53125 C 211.363281 198.53125 208.390625 200.015625 205.691406 200.015625 C 203.257812 200.015625 201.097656 198.933594 201.097656 192.449219 C 201.097656 187.046875 202.449219 184.480469 206.636719 184.480469 C 208.257812 184.480469 210.824219 184.886719 211.363281 185.023438 Z M 211.363281 198.53125 " fill-opacity="1" fill-rule="nonzero"/><path fill="#ffffff" d="M 225.140625 181.78125 C 218.65625 181.78125 216.496094 185.023438 216.496094 192.046875 C 216.496094 199.476562 218.386719 202.851562 225.140625 202.851562 C 231.894531 202.851562 233.785156 199.203125 233.785156 192.179688 C 233.785156 185.15625 231.21875 181.78125 225.140625 181.78125 Z M 225.140625 200.148438 C 220.414062 200.148438 219.601562 197.71875 219.601562 192.046875 C 219.601562 186.507812 220.820312 184.617188 225.140625 184.617188 C 229.058594 184.617188 230.679688 186.777344 230.679688 192.179688 C 230.679688 197.449219 229.867188 200.148438 225.140625 200.148438 Z M 225.140625 200.148438 " fill-opacity="1" fill-rule="nonzero"/><path fill="#ffffff" d="M 251.210938 195.691406 L 244.863281 174.484375 L 237.027344 174.484375 L 237.027344 202.445312 L 241.753906 202.445312 L 241.753906 180.292969 L 242.429688 180.292969 L 248.777344 201.230469 L 253.640625 201.230469 L 259.855469 180.292969 L 260.394531 180.292969 L 260.394531 202.445312 L 265.125 202.445312 L 265.125 174.484375 L 257.425781 174.484375 Z M 251.210938 195.691406 " fill-opacity="1" fill-rule="nonzero"/><path fill="#ffffff" d="M 284.84375 175.835938 L 283.089844 171.378906 L 273.363281 175.160156 L 274.847656 178.941406 Z M 284.84375 175.835938 " fill-opacity="1" fill-rule="nonzero"/><path fill="#ffffff" d="M 278.632812 181.78125 C 272.957031 181.78125 269.851562 185.15625 269.851562 192.585938 C 269.851562 199.746094 272.28125 202.851562 278.363281 202.851562 C 282.007812 202.851562 286.464844 201.90625 286.464844 201.90625 L 286.332031 198.257812 C 286.332031 198.257812 282.007812 198.664062 278.902344 198.664062 C 275.660156 198.664062 274.445312 197.179688 274.308594 194.34375 L 286.734375 194.34375 L 287.007812 191.101562 C 287.277344 184.75 284.441406 181.78125 278.632812 181.78125 Z M 274.445312 190.695312 C 274.445312 187.316406 275.660156 185.832031 278.496094 185.832031 C 281.46875 185.832031 282.550781 187.046875 282.550781 190.695312 Z M 274.445312 190.695312 " fill-opacity="1" fill-rule="nonzero"/><path fill="#ffffff" d="M 301.730469 182.183594 L 297.945312 189.074219 L 294.03125 182.183594 L 289.167969 182.183594 L 294.976562 192.316406 L 289.167969 202.445312 L 294.03125 202.445312 L 297.945312 195.691406 L 301.730469 202.445312 L 306.726562 202.445312 L 300.917969 192.316406 L 306.726562 182.183594 Z M 301.730469 182.183594 " fill-opacity="1" fill-rule="nonzero"/><path fill="#ffffff" d="M 310.242188 174.082031 L 314.832031 174.082031 L 314.832031 178.941406 L 310.242188 178.941406 Z M 310.242188 174.082031 " fill-opacity="1" fill-rule="evenodd"/><path fill="#ffffff" d="M 310.242188 182.183594 L 314.832031 182.183594 L 314.832031 202.445312 L 310.242188 202.445312 Z M 310.242188 182.183594 " fill-opacity="1" fill-rule="evenodd"/><path fill="#ffffff" d="M 329.015625 186.238281 C 330.636719 186.238281 333.742188 186.644531 333.742188 186.644531 L 333.878906 182.589844 C 333.878906 182.589844 329.824219 181.78125 327.800781 181.78125 C 321.722656 181.78125 319.289062 184.886719 319.289062 192.046875 C 319.289062 199.746094 321.585938 202.851562 327.664062 202.851562 C 329.824219 202.851562 333.878906 202.175781 333.878906 202.175781 L 333.742188 198.125 C 333.742188 198.125 330.5 198.53125 329.015625 198.53125 C 324.691406 198.53125 324.015625 196.910156 324.015625 192.046875 C 324.015625 187.722656 324.960938 186.238281 329.015625 186.238281 Z M 329.015625 186.238281 " fill-opacity="1" fill-rule="nonzero"/><path fill="#ffffff" d="M 344.277344 181.78125 C 337.523438 181.78125 335.09375 185.832031 335.09375 192.316406 C 335.09375 198.933594 337.253906 202.851562 344.277344 202.851562 C 351.300781 202.851562 353.328125 198.800781 353.328125 192.316406 C 353.328125 185.832031 351.03125 181.78125 344.277344 181.78125 Z M 344.277344 198.800781 C 340.632812 198.800781 339.957031 196.636719 339.957031 192.316406 C 339.957031 187.992188 340.902344 186.101562 344.277344 186.101562 C 347.519531 186.101562 348.601562 188.128906 348.601562 192.316406 C 348.734375 196.503906 347.925781 198.800781 344.277344 198.800781 Z M 344.277344 198.800781 " fill-opacity="1" fill-rule="nonzero"/><path fill="#ffffff" d="M 48.324219 160.707031 C 33.601562 160.707031 21.578125 172.730469 21.578125 187.453125 C 21.578125 202.175781 33.601562 214.199219 48.324219 214.199219 C 63.046875 214.199219 75.070312 202.175781 75.070312 187.453125 C 74.933594 172.730469 62.914062 160.707031 48.324219 160.707031 Z M 44.949219 200.148438 L 34.816406 190.019531 L 44.949219 179.890625 L 48.1875 183.128906 L 41.433594 189.882812 L 48.1875 196.636719 Z M 50.351562 195.289062 L 47.109375 192.046875 L 54.132812 185.023438 L 47.378906 178.269531 L 50.621094 175.027344 L 60.75 185.15625 Z M 50.351562 195.289062 " fill-opacity="1" fill-rule="nonzero"/></svg>