<svg width="463" height="87" viewBox="0 0 463 87" fill="none" xmlns="http://www.w3.org/2000/svg">
<path d="M116 84.5122V1.71646H145.154L159.553 73.867H161.695L176.094 1.71646H205.248V84.5122H190.017V13.1896H187.875L173.595 84.5122H147.653L133.374 13.1896H131.232V84.5122H116Z" fill="#836EF9"/>
<path d="M243.546 86.1681C237.676 86.1681 232.4 84.9853 227.72 82.6197C223.039 80.2541 219.35 76.824 216.653 72.3294C213.955 67.8347 212.607 62.4333 212.607 56.1251V54.2326C212.607 47.9244 213.955 42.5229 216.653 38.0283C219.35 33.5337 223.039 30.1036 227.72 27.738C232.4 25.3724 237.676 24.1896 243.546 24.1896C249.417 24.1896 254.692 25.3724 259.373 27.738C264.054 30.1036 267.742 33.5337 270.44 38.0283C273.137 42.5229 274.486 47.9244 274.486 54.2326V56.1251C274.486 62.4333 273.137 67.8347 270.44 72.3294C267.742 76.824 264.054 80.2541 259.373 82.6197C254.692 84.9853 249.417 86.1681 243.546 86.1681ZM243.546 72.9208C248.147 72.9208 251.955 71.462 254.97 68.5444C257.985 65.548 259.492 61.2899 259.492 55.7702V54.5874C259.492 49.0677 257.985 44.8491 254.97 41.9315C252.035 38.9351 248.227 37.4369 243.546 37.4369C238.945 37.4369 235.137 38.9351 232.122 41.9315C229.108 44.8491 227.601 49.0677 227.601 54.5874V55.7702C227.601 61.2899 229.108 65.548 232.122 68.5444C235.137 71.462 238.945 72.9208 243.546 72.9208Z" fill="#836EF9"/>
<path d="M317.837 86.1681C312.522 86.1681 308.436 85.2613 305.58 83.4476C302.724 81.634 300.622 79.6233 299.273 77.4154H297.132V84.5122H282.376V1.71646H297.37V32.5874H299.511C300.384 31.1681 301.534 29.8276 302.962 28.5659C304.47 27.3043 306.413 26.2792 308.793 25.4907C311.253 24.6233 314.267 24.1896 317.837 24.1896C322.597 24.1896 327 25.3724 331.046 27.738C335.092 30.0247 338.344 33.4154 340.804 37.91C343.263 42.4046 344.493 47.8455 344.493 54.2326V56.1251C344.493 62.5122 343.263 67.953 340.804 72.4476C338.344 76.9423 335.092 80.3724 331.046 82.738C327 85.0247 322.597 86.1681 317.837 86.1681ZM313.315 73.1573C317.917 73.1573 321.764 71.6985 324.858 68.781C327.952 65.7846 329.499 61.4476 329.499 55.7702V54.5874C329.499 48.91 327.952 44.6125 324.858 41.695C321.843 38.6985 317.996 37.2003 313.315 37.2003C308.714 37.2003 304.866 38.6985 301.772 41.695C298.679 44.6125 297.132 48.91 297.132 54.5874V55.7702C297.132 61.4476 298.679 65.7846 301.772 68.781C304.866 71.6985 308.714 73.1573 313.315 73.1573Z" fill="#836EF9"/>
<path d="M352.31 84.5122V25.8455H367.304V84.5122H352.31ZM359.807 18.9853C357.11 18.9853 354.809 18.1179 352.905 16.3831C351.081 14.6484 350.168 12.3616 350.168 9.52292C350.168 6.68421 351.081 4.39747 352.905 2.6627C354.809 0.927931 357.11 0.0605469 359.807 0.0605469C362.584 0.0605469 364.884 0.927931 366.709 2.6627C368.534 4.39747 369.446 6.68421 369.446 9.52292C369.446 12.3616 368.534 14.6484 366.709 16.3831C364.884 18.1179 362.584 18.9853 359.807 18.9853Z" fill="#836EF9"/>
<path d="M377.969 84.5122V1.71646H392.963V84.5122H377.969Z" fill="#836EF9"/>
<path d="M431.474 86.1681C425.206 86.1681 419.653 85.0641 414.814 82.8562C409.975 80.6484 406.167 77.4942 403.39 73.3939C400.693 69.2147 399.344 64.2864 399.344 58.6089V56.4799H414.576V58.1358C414.576 62.5516 416.123 66.1 419.217 68.781C422.311 71.3831 426.396 72.6842 431.474 72.6842C436.63 72.6842 440.597 71.462 443.373 69.0175C446.229 66.5731 447.657 63.4978 447.657 59.7917V58.6089C447.657 56.0856 447.023 54.0355 445.753 52.4584C444.484 50.8813 442.778 49.738 440.636 49.0283C438.495 48.2398 436.075 47.8455 433.378 47.8455H416.718V31.2864L443.611 17.0928V15.2003H401.486V1.71646H460.509V21.824L435.401 35.0713V36.9638H439.803C443.532 36.9638 447.142 37.7129 450.632 39.2111C454.202 40.7093 457.138 43.0355 459.438 46.1896C461.739 49.2648 462.889 53.2864 462.889 58.2541V59.6735C462.889 65.0355 461.58 69.7272 458.962 73.7487C456.344 77.6914 452.655 80.7666 447.895 82.9745C443.215 85.1036 437.741 86.1681 431.474 86.1681Z" fill="#836EF9"/>
<path d="M12.9501 4.30822H8.63548V8.61645H12.9501V4.30822Z" fill="#836EF9"/>
<path d="M8.62914 8.62277H4.31457V12.931H8.62914V8.62277Z" fill="#836EF9"/>
<path d="M4.31457 12.931H0V81.6918H4.31457V12.931Z" fill="#836EF9"/>
<path d="M17.2646 0H12.9501V4.30822H17.2646V0Z" fill="#836EF9"/>
<path d="M12.9501 73.069H8.63548V77.3772H12.9501V73.069Z" fill="#836EF9"/>
<path d="M8.62914 77.3772H4.31457V81.6854H8.62914V77.3772Z" fill="#836EF9"/>
<path d="M17.2646 68.7608H12.9501V73.069H17.2646V68.7608Z" fill="#836EF9"/>
<path d="M81.6791 73.069H77.3645V77.3772H81.6791V73.069Z" fill="#836EF9"/>
<path d="M77.3645 77.3772H73.0499V81.6854H77.3645V77.3772Z" fill="#836EF9"/>
<path d="M86 68.7608H81.6854V73.069H86V68.7608Z" fill="#836EF9"/>
<path d="M73.0436 81.6918H4.31457V86H73.0436V81.6918Z" fill="#836EF9"/>
<path d="M86 64.4462H17.271V68.7544H86V64.4462Z" fill="#836EF9"/>
<path d="M21.5919 68.6279V1.93064e-07H17.2773V68.6279H21.5919Z" fill="#836EF9"/>
<path d="M2.90172 21.4462H69.3689V17.138H2.90172V21.4462Z" fill="#836EF9"/>
<path d="M65.0417 17.1317V82.0777H69.3563V17.1317H65.0417Z" fill="#836EF9"/>
<path d="M15.1105 4.30822H81.5777V0H15.1105V4.30822Z" fill="#836EF9"/>
<path d="M81.6791 4.30823V70.6777H85.9937V4.30823H81.6791Z" fill="#836EF9"/>
<path d="M77.9981 8.62277H73.6835V12.931H77.9981V8.62277Z" fill="#836EF9"/>
<path d="M73.6772 12.931H69.3626V17.2392H73.6772V12.931Z" fill="#836EF9"/>
<path d="M82.3126 4.30822H77.9981V8.61645H82.3126V4.30822Z" fill="#836EF9"/>
</svg>
